<svg xmlns="http://www.w3.org/2000/svg" width="1200" height="630" viewBox="0 0 1200 630">
  <defs>
    <linearGradient id="bg" x1="0" y1="0" x2="1" y2="1">
      <stop offset="0%" stop-color="#1e1935" />
      <stop offset="100%" stop-color="#2e2b65" />
    </linearGradient>
  </defs>
  <rect width="1200" height="630" fill="url(#bg)" />
  <rect x="330" y="150" width="540" height="330" rx="24" fill="#121127" stroke="#8fa3ff" stroke-width="6" />
  <rect x="430" y="230" width="340" height="170" rx="14" fill="#27307a" />
  <g fill="#8fa3ff">
    <rect x="300" y="190" width="30" height="12" /><rect x="300" y="225" width="30" height="12" /><rect x="300" y="260" width="30" height="12" /><rect x="300" y="295" width="30" height="12" /><rect x="300" y="330" width="30" height="12" /><rect x="300" y="365" width="30" height="12" /><rect x="300" y="400" width="30" height="12" />
    <rect x="870" y="190" width="30" height="12" /><rect x="870" y="225" width="30" height="12" /><rect x="870" y="260" width="30" height="12" /><rect x="870" y="295" width="30" height="12" /><rect x="870" y="330" width="30" height="12" /><rect x="870" y="365" width="30" height="12" /><rect x="870" y="400" width="30" height="12" />
  </g>
  <text x="70" y="90" fill="#eef0ff" font-family="Segoe UI, Arial, sans-serif" font-size="44" font-weight="700">East Asia Chip Shortage</text>
  <text x="70" y="135" fill="#c7ccff" font-family="Segoe UI, Arial, sans-serif" font-size="24">Semiconductor supply under pressure</text>
</svg>
